# xmcd
#
# Track frame offsets: 
#        150
#        11347
#        25517
#        41017
#        52180
#        64072
#        77430
#        87975
#        99937
#        115415
#        128422
#        139675
#        154760
#        165025
#        176252
#        184995
#        196685
#        207997
#        219827
#        230940
#
# Disc length: 3218 seconds
#
# Revision: 1
# Processed by: cddbd v1.5.2PL0 Copyright (c) Steve Scherf et al.
# Submitted via: ExactAudioCopyFreeDBPlugin 1.0
#
DISCID=f80c9014
DTITLE=Various Artist - 20 Hits: 4 Country Legends
DYEAR=1900
DGENRE=Country
TTITLE0=Conway Twitty - Hello  Darlin'
TTITLE1=Conway Twitty - You've Never Been This Far Before
TTITLE2=Conway Twitty - Touch This Hand
TTITLE3=Conway Twitty - It's Only Make Believe
TTITLE4=Conway Twitty - Linda on My Mind
TTITLE5=Tammy Wynette - D.I.V.O.R.C.E.
TTITLE6=Tammy Wynette - They Call It Making Love
TTITLE7=Tammy Wynette - Till I Get It Right
TTITLE8=Tammy Wynette - Talkin' to Myself
TTITLE9=Tammy Wynette - Womanhood
TTITLE10=Roger Miller - King of the Road
TTITLE11=Roger Miller - Me and Bobby McGee
TTITLE12=Roger Miller - Engine Engine #9
TTITLE13=Roger Miller - Hunsbands and Wives
TTITLE14=Roger Miller - England Swings
TTITLE15=Patsy Cline - Walking After Midnight
TTITLE16=Patsy Cline - Just Out of Reach
TTITLE17=Patsy Cline - Honky Tonk Merry Go Round
TTITLE18=Patsy Cline - A Stranger in My Arms
TTITLE19=Patsy Cline - Lovesick Blues
EXTD=
EXTT0=
EXTT1=
EXTT2=
EXTT3=
EXTT4=
EXTT5=
EXTT6=
EXTT7=
EXTT8=
EXTT9=
EXTT10=
EXTT11=
EXTT12=
EXTT13=
EXTT14=
EXTT15=
EXTT16=
EXTT17=
EXTT18=
EXTT19=
PLAYORDER=
